<?xml version="1.0" encoding="UTF-8"?>
<svg id="Layer_2" data-name="Layer 2" xmlns="http://www.w3.org/2000/svg" viewBox="0 0 562.5 228.19">
  <defs>
    <style>
      .cls-1 {
        fill: #1e1e1e;
      }
    </style>
  </defs>
  <g id="Layer_1-2" data-name="Layer 1">
    <g>
      <path class="cls-1" d="M193.88,197.44c-1.1-9.1-8.71-16.11-19.81-18.3-10.57-2.08-21.08-.72-31.58.82-9.01,1.32-17.95,3.2-27.2,2.11-15.98-1.88-26.03-12.58-26.1-28.63-.02-5.02.28-10.15,1.27-15.06,4.79-23.9,9.9-47.73,14.78-71.61.54-2.64,1.7-3.41,4.29-3.39,14.76.09,29.53.03,44.3,0,1.11,0,2.22-.1,4.04-.19-4.72-7.02-6.62-14.17-6.08-21.97.55-7.96,3.82-14.73,9.35-21.16-1.38-.08-1.95-.15-2.52-.15-51.68-.02-103.36,0-155.04-.09C.65,19.83-.03,20.95,0,23.62c.11,11.75.07,23.51.08,35.26q0,4.54,4.51,4.53c14.86,0,29.73.02,44.59-.01,2.16,0,3.5.23,3.02,3.05-4.2,24.7-8.39,49.4-12.39,74.14-1.88,11.61-3.24,23.29-1.91,35.09,2.11,18.77,11.2,32.81,28.25,41.37,13.11,6.58,27.11,7.89,41.2,5.12,10.81-2.13,21.28-5.92,31.94-8.86,7.1-1.96,14.16-4.32,21.4-5.46,11.56-1.83,17.77,5.17,15.56,16.67-.19.99-.29,1.99-.43,2.99.29.23.59.47.88.7,3.25-2.65,6.83-4.99,9.7-8,6.02-6.32,8.53-14.05,7.48-22.75Z"/>
      <path class="cls-1" d="M253.5,123.52c-1.27,6.89-2.39,12.98-3.5,19.07-1.59,8.69-3.23,17.38-4.72,26.09-.38,2.23-1.33,3.15-3.63,3.14-12.14-.08-24.29-.08-36.43-.05-2.17,0-3.28-.54-2.79-3.05,5.42-27.74,10.77-55.49,16.19-83.22.43-2.18,1.18-4.31,1.98-6.39,2.54-6.66,7.1-11.29,13.96-13.45,8.93-2.8,17.95-3.08,26.98-.49,4.63,1.33,7.87,4.26,10.08,8.62,6.09,12.05,12.36,24.01,18.57,36,.44.84.95,1.64,1.68,2.88,1.38-1.68,2.57-3.03,3.64-4.48,8.48-11.49,16.82-23.08,25.49-34.42,1.98-2.59,4.82-5.01,7.79-6.28,10.36-4.4,21.29-5.15,32.3-3.04,7.4,1.42,9.63,4.4,9.64,11.89.03,30.6,0,61.21.08,91.81,0,2.8-.92,3.73-3.69,3.7-11.56-.11-23.12-.03-34.68-.07-3.54,0-3.73-.25-3.73-3.89,0-13.7,0-27.4-.02-41.1,0-1.01-.09-2.03-.17-3.84-1.09,1.22-1.67,1.8-2.18,2.44-8.72,10.94-17.48,21.84-26.11,32.84-2.92,3.72-6.36,6.05-11.23,6.36-5.84.37-10.21-1.28-13.43-6.62-6.41-10.65-13.28-21.02-19.97-31.5-.51-.8-1.1-1.54-2.11-2.96Z"/>
      <path class="cls-1" d="M457.01,183.62c-16.15-.5-31.75-2.68-46.18-10.09-21.46-11.03-31.6-31.49-30.36-54.74.47-8.88,2.75-17.27,7.23-24.95,7.48-12.81,19.02-20.83,32.74-25.24,23.96-7.7,48.04-7.69,71.53,2.12,14.81,6.18,26.29,16.23,31.97,31.68,6.54,17.78,5.62,45.39-12.04,61.78-8.41,7.81-18.28,12.88-29.37,15.28-8.41,1.82-17.01,2.79-25.52,4.14ZM453.79,128.3v.03c1.55,0,3.11,0,4.66,0,8.06-.02,16.12-.04,24.18-.09,1.34,0,2.83.1,2.96-1.92.61-9.34-1.47-20.2-11.93-26.34-8.94-5.25-18.64-5.71-28.51-3.99-15.44,2.69-23.77,13.38-23.09,29,.11,2.48.95,3.38,3.48,3.35,9.42-.11,18.84-.04,28.25-.04ZM426.32,140.17c-.09.27-.19.55-.28.82,8.81,10.66,21.04,11.27,33.51,10.54,10.78-.63,20.2-5.7,22.04-11.35h-55.27Z"/>
      <g>
        <path class="cls-1" d="M196.76,72.38c-10.98-.03-21.96.16-32.93.06-3.22-.03-4.32,1.28-4.82,4.31-4.52,27.01-9.18,54.01-13.8,81-.53,3.12-1.1,6.24-1.75,9.9,15.12-2.95,29.69-3.69,43.82,3.52.36-1.56.67-2.66.86-3.77,4.46-25.45,8.92-50.89,13.35-76.34.68-3.92,1.45-7.85,1.71-11.81.32-4.95-1.56-6.86-6.44-6.87Z"/>
        <path class="cls-1" d="M184.6,64.73c12.98.07,23.22-9.89,23.25-22.62.03-12.4-10.14-22.61-22.61-22.7-12.95-.1-23.18,10.03-23.22,23-.04,12.18,10.15,22.26,22.58,22.32Z"/>
      </g>
      <g>
        <path class="cls-1" d="M529.61,0c-19.08-.2-33.92,14.23-34.08,33.12-.16,18.46,14.93,33.64,33.46,33.67,18.73.03,33.36-14.44,33.51-33.12C562.64,14.93,548.25.19,529.61,0ZM530.4,60.65c-14.9.54-28.05-11.28-28.54-25.67-.56-16.21,10.61-28.34,26.59-28.88,14.72-.49,27.24,11.32,27.67,26.1.47,15.77-10.5,27.89-25.72,28.45Z"/>
        <path class="cls-1" d="M538.89,36.19c4.95-3.64,6.72-8.37,5.09-13.67-1.37-4.45-5.41-7.05-11.49-7.19-4.75-.11-9.51,0-14.26-.04-1.78-.02-2.75.67-2.75,2.53,0,10.48-.04,20.95.04,31.43,0,.72.78,1.87,1.45,2.09,3.89,1.31,5.85-.16,5.84-4.18,0-1.26-.02-2.52-.03-3.78-.03-5.35-.04-5.23,5.32-5.14,2.27.04,2.94,1.59,3.8,3.05,1.27,2.18,2.42,4.43,3.64,6.63,2.19,3.95,5.24,4.86,9.91,2.68-2.55-4.44-5.09-8.85-7.74-13.45.58-.47.87-.73,1.17-.95ZM532.27,31.7c-1.33.22-2.69.27-4.04.29-5.35.06-5.35.05-5.36-5.3q-.02-5.15,5.22-5.13c1.35,0,2.72-.06,4.05.12,2.89.39,4.74,2.4,4.76,4.97.01,2.62-1.72,4.57-4.63,5.06Z"/>
      </g>
    </g>
  </g>
</svg>