<?xml version="1.0" encoding="UTF-8"?>
<svg id="Layer_2" data-name="Layer 2" xmlns="http://www.w3.org/2000/svg" viewBox="0 0 244.34 209.15">
  <defs>
    <style>
      .cls-1 {
        fill: #1e1e1e;
      }
    </style>
  </defs>
  <g id="Layer_2-2" data-name="Layer 2">
    <path class="cls-1" d="M199.73,209.15c.43-2.07.96-3.93,1.2-5.82.94-7.56-3.15-13.31-10.6-14.92-5.74-1.25-11.4-.29-16.87,1.32-9.95,2.92-19.81,6.18-29.7,9.31-11.63,3.69-23.35,6.89-35.64,7.51-22.48,1.13-43-8.71-52.82-28.69-5.14-10.45-5.67-21.62-4.9-32.97.87-12.92,3.83-25.49,6.49-38.11,4.62-21.93,9.27-43.85,13.91-65.78.47-2.24.29-2.47-2.34-2.47-20.12-.02-40.23-.03-60.35-.05-1.15,0-2.31.02-3.46-.09C1.68,38.1.06,36.4.05,33.42,0,24.55-.03,15.68.03,6.81.06,2.55,2.09.48,6.33.09,7.19.01,8.06,0,8.92,0c75.2,0,150.41.01,225.61.03,1.87,0,3.76-.04,5.61.21,3.51.49,4.73,2.27,4,5.75-1.58,7.55-3.24,15.08-4.87,22.61-.35,1.62-.72,3.24-1.01,4.87-.6,3.31-2.1,4.76-5.49,4.96-2.23.13-4.47.07-6.7.07-30.28,0-60.57.03-90.85-.05-2.25,0-3.26.55-3.8,2.87-3.94,17.13-8.07,34.22-12.07,51.35-2.58,11.08-5.29,22.15-7.43,33.32-.86,4.52-.84,9.35-.37,13.95,1,9.76,6.92,15.75,16.08,18.54,7.95,2.43,16.11,1.92,24.25,1.08,11.32-1.17,22.59-3.02,34.04-2.36,7.36.42,14.48,1.87,20.76,5.95,14.59,9.48,12.9,26.38,5.27,36.15-3.07,3.93-6.93,6.9-11.13,9.48-.27.17-.62.22-1.08.37Z"/>
  </g>
</svg>